<svg width="57" height="56" viewBox="0 0 57 56" fill="none" xmlns="http://www.w3.org/2000/svg">
<path d="M39.2256 38.2118L54.9999 53.9861" stroke="white" stroke-width="3.58507" stroke-linecap="round"/>
<circle cx="22.9444" cy="22.9444" r="20.7934" stroke="white" stroke-width="4.30208"/>
<mask id="path-3-inside-1_2_301" fill="white">
<path d="M43.7425 22.9444C44.9279 22.9444 45.8993 21.9814 45.7886 20.8011C45.4087 16.7518 43.9574 12.8622 41.5665 9.54043C39.1755 6.21867 35.9477 3.60777 32.2284 1.96214C31.1444 1.48251 29.9227 2.09793 29.5465 3.22201C29.1702 4.3461 29.7834 5.55129 30.8569 6.05415C33.7264 7.39838 36.2175 9.45729 38.0825 12.0482C39.9474 14.6391 41.109 17.655 41.4729 20.8028C41.609 21.9803 42.5571 22.9444 43.7425 22.9444Z"/>
</mask>
<path d="M43.7425 22.9444C44.9279 22.9444 45.8993 21.9814 45.7886 20.8011C45.4087 16.7518 43.9574 12.8622 41.5665 9.54043C39.1755 6.21867 35.9477 3.60777 32.2284 1.96214C31.1444 1.48251 29.9227 2.09793 29.5465 3.22201C29.1702 4.3461 29.7834 5.55129 30.8569 6.05415C33.7264 7.39838 36.2175 9.45729 38.0825 12.0482C39.9474 14.6391 41.109 17.655 41.4729 20.8028C41.609 21.9803 42.5571 22.9444 43.7425 22.9444Z" stroke="#28C7D6" stroke-width="4.30208" mask="url(#path-3-inside-1_2_301)"/>
</svg>
